<svg width="17" height="13" viewBox="0 0 17 13" fill="none" xmlns="http://www.w3.org/2000/svg">
<path d="M15.3552 1.91309C15.7161 4.40848 16.2468 6.98351 16.4166 9.50013C16.5175 11.008 15.801 11.7354 14.3362 11.9796C11.8099 12.4096 9.18284 12.4946 6.63005 12.7229C5.10156 12.8609 2.31525 13.4874 1.05212 12.2238C0.436475 11.6079 0.590385 10.6682 0.632843 9.8824C0.691223 8.76213 0.818597 7.64717 0.818597 6.5269C0.818597 5.11993 0.409941 3.9678 0.0968131 2.62985C-0.0464825 2.01928 -0.078329 1.4087 0.335638 0.883079C1.3334 -0.380543 3.83312 0.0813695 5.2077 0.0866788C8.00463 0.0972975 10.8016 0.171629 13.5932 0.224723C14.4636 0.240651 14.4264 1.65293 13.5932 1.55206C9.96832 1.12731 6.23731 0.861842 2.58592 1.03705C1.78452 1.07422 0.961894 1.02643 0.977817 2.38562C0.983123 2.69887 1.21664 3.08115 1.30156 3.37847C1.51385 4.09523 1.61469 4.83323 1.64653 5.58184C1.68368 6.37824 1.6253 7.17464 1.55631 7.96573C1.48732 8.78868 1.21664 9.78683 1.3281 10.6045C1.52447 12.0592 2.69206 12.2185 3.92865 12.1813C4.83089 12.1548 5.72782 12.0433 6.63005 11.969C8.46636 11.815 10.3027 11.677 12.139 11.5283C12.8873 11.4699 14.315 11.6292 14.9784 11.2469C15.4666 10.9655 15.8753 10.0311 15.9071 9.50013C15.939 8.97981 15.7267 8.19403 15.6524 7.65779C15.3976 5.7889 15.0792 3.93064 14.8085 2.06706C14.7555 1.70603 15.3021 1.55206 15.3552 1.91309Z" fill="white"/>
</svg>
