<svg width="6" height="6" viewBox="0 0 6 6" fill="none" xmlns="http://www.w3.org/2000/svg">
<path d="M5.89183 0.301524C3.23243 1.23854 1.14727 2.89505 0.533991 5.77861C0.400184 5.67821 0.266376 5.57225 0.13257 5.47185C0.818329 5.03123 1.41488 4.48463 1.91666 3.84322C2.27347 3.38587 2.52994 2.77793 2.94809 2.37078C3.40526 1.93016 4.12447 1.77955 4.66527 2.13093C4.69872 2.15324 4.67642 2.20903 4.6374 2.19229C3.43314 1.7461 2.74737 3.61454 2.1787 4.31173C1.66577 4.94756 1.05807 5.45512 0.405762 5.94036C0.199476 6.09653 -0.0346863 5.83995 0.00434069 5.63359C0.556293 2.89505 2.91463 0.167677 5.84723 0.000352965C6.03679 -0.010802 6.04794 0.245749 5.89183 0.301524Z" fill="black"/>
</svg>
