<svg width="2" height="7" viewBox="0 0 2 7" fill="none" xmlns="http://www.w3.org/2000/svg">
<path d="M0.142333 0.000651458C1.53964 -0.0432031 1.47937 2.13856 1.61088 3.07047C1.78622 4.33677 2.1424 5.97035 1.05195 6.92419C0.865645 7.08864 0.613579 6.96804 0.586181 6.73232C0.580701 6.67202 0.575222 6.61171 0.569743 6.5569C0.553304 6.41985 0.712214 6.376 0.810847 6.41985C0.871123 6.44726 0.936877 6.47468 0.997153 6.50209C0.871121 6.53498 0.750574 6.56787 0.624542 6.60076C1.26566 5.625 1.19442 4.68212 1.05743 3.58028C0.920438 2.47295 0.997155 0.998343 0.0491799 0.241853C-0.0604126 0.159625 0.03274 0.00613327 0.142333 0.000651458Z" fill="black"/>
</svg>
