<svg width="38" height="109" viewBox="0 0 38 109" fill="none" xmlns="http://www.w3.org/2000/svg">
<path d="M0.0927421 106.221C0.74451 107.215 4.07691 106.469 5.05982 106.563C5.94285 106.647 6.77333 106.984 7.63009 107.205C10.3528 107.915 13.3961 107.541 15.8455 108.929C15.9191 108.971 16.0084 109.019 16.0925 108.992C16.1871 108.966 16.2292 108.861 16.2607 108.772C17.8271 104.439 19.0465 99.9168 20.4183 95.4999C22.4788 88.864 24.5339 82.2228 26.5943 75.587C27.6561 72.1586 28.7231 68.7302 29.7848 65.3019L37.2644 30.6344L33.9372 6.19944L33.1488 0.436434L33.091 0C33.091 0 32.928 0.0578392 32.6284 0.163004C31.5877 0.531079 28.9123 1.53015 25.9531 2.97616C21.2068 5.29503 15.7193 8.77072 14.973 12.7039C14.973 12.7196 14.9677 12.7302 14.9677 12.7459C14.5735 15.5065 14.1267 18.2565 13.6957 21.0119C12.9283 25.8967 12.1504 30.7764 11.3672 35.656C10.3948 41.7293 9.42244 47.8025 8.44479 53.8758C7.42509 60.2067 6.40539 66.5323 5.38569 72.8579C4.47638 78.5053 3.56181 84.1526 2.64723 89.7947C1.99547 93.8225 1.3437 97.8503 0.691939 101.878C0.513228 102.993 0.329265 104.108 0.150554 105.222C0.119018 105.417 -0.0491875 105.874 0.0138885 106.064C0.0349112 106.121 0.061206 106.174 0.0927421 106.221Z" fill="#EED9CE"/>
</svg>
