<svg width="3" height="2" viewBox="0 0 3 2" fill="none" xmlns="http://www.w3.org/2000/svg">
<path d="M2.84885 1.21872C2.67138 1.1133 2.59374 0.946853 2.43291 0.813698C2.19998 0.619515 1.89496 0.508556 1.60102 0.453075C1.32927 0.403142 1.03535 0.40314 0.77469 0.503006C0.530671 0.597324 0.469659 0.83035 0.247823 0.924667C0.186819 0.952408 0.131372 0.941311 0.0870049 0.880282C0.0703672 0.858089 0.053726 0.830346 0.0315424 0.808153C-0.0183707 0.741576 -0.001733 0.658355 0.0315424 0.591778C0.314383 -0.0185142 1.12962 -0.0684479 1.7064 0.0536105C2.19998 0.159024 3.08733 0.536299 2.99305 1.15769C2.99305 1.22426 2.89876 1.24646 2.84885 1.21872Z" fill="#F9F9F9"/>
</svg>
