<svg width="100" height="139" viewBox="0 0 100 139" fill="none" xmlns="http://www.w3.org/2000/svg">
<path d="M27.5286 51.6272C29.2019 54.2533 33.5736 57.3135 36.6745 57.2717C47.2375 57.0781 50.7149 49.8799 51.8549 47.259C51.6405 47.2067 51.2797 47.1649 51.0235 47.1335C49.0782 46.851 47.0911 44.9259 46.5106 42.7549C45.7629 39.93 44.8425 34.4058 44.9524 30.8956L31.5917 38.2927C31.6126 39.3075 31.6806 40.4165 31.7747 41.536C31.8427 42.2161 31.9107 42.8857 31.9891 43.5344C32.0623 44.1569 32.146 44.748 32.2244 45.2921C32.4702 47.123 31.6544 48.9383 30.1118 49.9479L27.5286 51.6272Z" fill="#FE8E68"/>
<path d="M26.3786 22.8615C27.1002 24.7553 26.7969 26.9053 26.0648 28.7938C25.5471 30.1278 24.3967 28.9507 22.9639 28.9769C20.7467 29.0135 19.0159 26.7065 17.6772 20.5912C16.8248 16.1028 16.6104 13.8272 16.783 13.393C17.3948 11.8393 19.4133 11.0075 21.0762 10.861" fill="#3D302A"/>
<path d="M23.0063 9.4116C19.5132 13.6228 18.2425 25.4716 21.1917 33.7265C23.2887 39.596 25.7255 43.3834 28.5702 43.2631C32.8895 43.08 41.2615 39.528 43.9859 36.5619C48.8962 31.2207 47.4686 20.7478 46.4541 14.1564C45.5338 8.16657 42.7309 0.387679 35.2061 1.86813C30.2592 2.83068 26.1386 5.6294 23.0063 9.4116Z" fill="#FE8E68"/>
<path d="M42.8454 13.1987C42.0715 14.1246 40.7067 14.3286 39.5824 14.5117C38.0711 14.7576 37.3233 15.2703 36.539 16.6461C36.0422 17.525 35.5454 18.4875 34.6564 18.9636C34.2381 19.1885 33.6001 19.2199 33.3962 18.7909C33.7936 18.5241 33.9296 17.9801 33.8302 17.5093C33.7309 17.0437 33.4433 16.6409 33.14 16.2694C32.8837 16.6147 32.8576 17.0751 32.7164 17.4883C32.5281 18.0324 32.1255 18.4927 31.613 18.7491C31.5294 18.7909 31.4405 18.8275 31.3516 18.8118C31.2313 18.7961 31.1372 18.6915 31.0587 18.5974C30.5097 17.9382 29.9711 16.6827 29.2076 16.2799C29.0559 16.9966 28.7788 17.5668 28.3395 18.1579C27.9526 18.6758 27.4924 19.2094 26.8597 19.3297C26.6557 19.3716 26.3995 19.3402 26.3054 19.1571C26.1851 18.9322 26.3733 18.7072 26.342 18.477C26.3158 18.2626 26.2165 18.1684 26.1067 17.9853C25.8243 17.5197 25.5733 17.0698 25.202 16.6618C24.4542 17.5145 23.6385 18.2992 22.7652 19.0211C22.5717 19.178 22.2893 19.335 22.0958 19.178C21.9913 19.0943 21.9651 18.9531 21.9442 18.8171C21.8344 18.1527 21.7298 17.4883 21.62 16.824C21.5572 16.4525 21.3428 15.966 20.9768 16.0602C20.799 16.1073 20.6944 16.2799 20.5951 16.4369C20.4748 16.6356 18.3256 18.9008 18.2837 18.7281C17.9491 17.4413 17.264 16.2695 16.9294 14.9826C14.7802 6.69624 24.381 0.0368507 31.7176 0.000231919C33.3491 -0.0102306 34.8761 0.335031 36.4605 0.685526C38.1496 1.06218 39.8961 1.33943 41.4283 2.18167C43.5775 3.3587 45.2038 5.49829 44.7855 8.05114" fill="#3D302A"/>
<path d="M39.3105 11.0072C38.2437 12.2156 37.9613 13.9158 37.862 15.5218C37.7155 17.9439 37.9143 20.4601 39.0333 22.6102C39.3523 23.2222 39.5876 26.2511 40.0792 26.0837C40.236 26.0314 40.2099 23.6826 40.623 22.4166C41.2609 20.4549 44.1998 19.7068 45.5228 20.9466C47.6354 22.9188 46.3961 25.3147 45.6953 26.8056C45.277 27.7054 44.6129 28.715 44.4978 29.6671C44.3567 30.886 44.3148 35.3274 45.1097 36.3631C45.7738 37.2315 46.4797 33.0361 47.0811 32.2095C51.5312 26.0523 55.7982 10.3742 48.2001 6.9739C47.0445 6.45601 43.4782 6.18921 42.3957 6.84835" fill="#3D302A"/>
<path d="M11.1769 135.637C10.7376 135.71 10.2931 135.773 9.83298 135.788C7.3857 135.867 5.02208 135.328 2.63232 134.92C0.530175 134.559 -0.0398053 134.36 0.00202465 131.823C0.368073 111.73 3.32259 91.6888 8.63548 72.307C9.44601 69.3461 10.3297 66.3643 11.8828 63.7172C14.534 59.2027 20.6209 55.3054 25.2905 53.1187C25.9494 52.8101 28.6791 54.5469 29.3432 54.2487C29.9236 53.9871 30.4361 53.5791 31.0218 53.3227C32.737 52.5747 33.8874 54.1388 35.3202 54.7927C36.0627 55.1275 36.889 55.342 37.7047 55.3054C38.3688 55.2792 38.9702 54.8764 39.5768 55.1903C42.3064 56.6027 49.0835 46.1193 49.0835 46.1193L52.0171 49.19L60.6087 58.193L82.0799 87.7863C82.0799 87.7863 85.9757 112.038 88.653 127.936C89.1184 130.677 90.9591 136.604 91.3252 138.681C91.2467 138.231 72.9967 138.111 72.0137 138.111C59.3276 138.111 47.5095 138.111 34.8182 138.111C32.7317 138.111 27.1208 138.995 25.6566 137.462C23.8525 135.579 21.7661 126.937 21.6562 124.515C21.2954 116.37 21.8549 108.288 21.9648 100.095C21.9177 103.428 20.9608 106.441 20.5529 109.705C20.0247 113.906 19.2717 118.101 18.5919 122.281C18.0481 125.64 17.5252 129.009 17.1068 132.388C16.9186 133.91 17.1591 134.815 15.8727 135.412C14.8007 135.893 12.4423 135.422 11.1769 135.637Z" fill="#BC744A"/>
<path d="M18.0694 128.679C19.0629 128.271 25.1968 126.748 27.9631 126.173C29.4115 125.875 35.9795 124.169 37.5012 124.169C39.0229 124.169 41.0936 126.346 41.0936 126.346L40.5446 133.831C39.0804 133.685 37.1194 134.444 36.0683 134.59C35.0173 134.736 31.4457 134.757 29.2494 133.654C29.1239 133.591 29.0089 133.523 28.8939 133.455C28.0101 134.24 26.9015 135.003 25.6727 135.066C25.6727 135.066 24.7105 134.967 24.8046 134.58C24.8464 134.391 25.4844 133.418 26.1224 132.466C25.1811 133.423 23.6437 134.977 21.871 135.066C21.871 135.066 20.9088 134.967 21.003 134.58C21.0553 134.349 21.9756 132.974 22.7181 131.88C22.7077 131.891 22.692 131.896 22.6868 131.906C21.9076 132.592 20.0565 134.956 17.8654 135.066C17.8654 135.066 16.9033 134.967 16.9974 134.58C17.0288 134.438 17.3948 133.858 17.8393 133.183C17.2798 133.612 16.5947 134.067 15.7633 134.48C13.3945 135.652 12.0453 134.763 12.0453 134.48C12.0401 134.192 17.0758 129.087 18.0694 128.679Z" fill="#FE8E68"/>
<path d="M39.3995 119.984C39.3995 119.984 35.5822 122.15 35.9221 126.753C36.262 131.357 37.6425 136.693 43.4051 136.133C49.1676 135.573 39.3995 119.984 39.3995 119.984Z" fill="#874C2E"/>
<path d="M44.6441 135.678C58.4597 140.475 76.945 135.893 88.6637 127.925C96.0055 122.945 100.691 116.621 99.9013 110.443C97.8567 94.393 85.249 57.6067 74.3408 52.2395C66.9258 48.588 57.9315 47.0762 52.9167 46.4694C50.5636 46.1817 49.0942 46.1137 49.0942 46.1137L50.9139 51.2508L60.0232 76.9467C60.3631 92.1959 71.2713 101.251 69.1012 104.803C66.931 108.345 49.7949 112.169 40.7954 118.232C38.3063 119.916 35.1478 132.1 44.6441 135.678Z" fill="#BC744A"/>
<path d="M99.9014 110.84L99.9327 111.913C99.9327 112.091 99.9589 112.268 99.9327 112.446L99.87 112.975C99.8177 113.325 99.8177 113.686 99.7288 114.026L99.4778 115.057C99.0595 116.406 98.479 117.709 97.6842 118.881C96.1677 121.266 94.1597 123.317 91.9425 125.075C87.5029 128.6 82.3887 131.237 77.0549 133.152C71.7316 135.113 66.152 136.405 60.4887 136.876C57.6597 137.117 54.8098 137.148 51.9808 136.908C49.1466 136.688 46.3332 136.17 43.6036 135.317C46.2757 136.337 49.0995 136.939 51.939 137.29C54.7889 137.614 57.665 137.65 60.5306 137.478C63.3962 137.316 66.2461 136.887 69.049 136.269C71.8518 135.657 74.6181 134.862 77.3216 133.889C80.0147 132.89 82.6502 131.723 85.1706 130.342C87.6859 128.956 90.1227 127.397 92.319 125.535C94.5205 123.688 96.5233 121.554 98.0032 119.074C98.7614 117.845 99.3 116.49 99.6713 115.104C100.043 113.712 100.069 112.253 99.9014 110.84Z" fill="#874C2E"/>
<path d="M60.0234 76.9472C60.013 79.8401 60.4156 82.7382 61.1686 85.5422C61.9269 88.3461 63.0354 91.0507 64.3218 93.6559C64.965 94.9584 65.6501 96.2349 66.356 97.4956C67.0515 98.7616 67.7679 100.017 68.3536 101.304C68.6412 101.947 68.8922 102.612 68.9915 103.266C69.0177 103.585 69.0438 103.914 68.9549 104.192C68.934 104.343 68.8451 104.458 68.7928 104.594C68.6935 104.715 68.6255 104.846 68.5 104.961C67.564 105.897 66.2253 106.53 64.9546 107.142C59.7358 109.522 54.1928 111.285 48.9113 113.66C46.2706 114.848 43.656 116.129 41.2244 117.73L40.7747 118.034C40.623 118.138 40.4818 118.274 40.3354 118.394C40.0635 118.661 39.8282 118.954 39.6399 119.273C39.253 119.906 38.9915 120.597 38.7876 121.298C38.4006 122.705 38.2385 124.154 38.228 125.603C38.3222 124.165 38.5627 122.726 38.9863 121.361C39.436 120.006 40.1315 118.687 41.4336 118.054C43.8756 116.537 46.4954 115.329 49.1519 114.215C51.8136 113.116 54.5066 112.075 57.2101 111.065C59.9136 110.04 62.6328 109.062 65.2892 107.848C66.5965 107.2 67.9405 106.588 69.0543 105.463C69.1955 105.327 69.3105 105.138 69.4308 104.976C69.5197 104.778 69.6399 104.589 69.6713 104.38C69.7968 103.961 69.755 103.548 69.7184 103.156C69.5929 102.382 69.3105 101.681 69.0072 101.011C68.3849 99.6718 67.6581 98.4215 66.9521 97.1608C66.2462 95.9001 65.535 94.6498 64.8604 93.3786C62.1622 88.3095 60.2953 82.7382 60.0234 76.9472Z" fill="#874C2E"/>
<path d="M24.2195 53.6159C25.5372 54.9237 31.4044 59.1035 36.9997 59.1035C37.9305 59.1035 38.9136 59.0198 39.9542 58.8262C44.65 57.9683 48.6033 54.8348 50.9147 51.2461C51.3435 50.5713 51.72 49.8755 52.0285 49.1798C52.4468 48.28 52.7449 47.3593 52.9174 46.47C50.5643 46.1823 48.3157 45.5911 47.9497 45.1726C47.5523 47.9138 44.169 52.8626 39.0443 53.7937C38.4011 53.9141 37.7945 53.9664 37.2141 53.9768H37.2036C34.7982 54.0187 32.9523 53.2497 31.692 52.4755C31.6816 52.4755 29.2395 50.5504 29.2291 50.5399L24.2195 53.6159Z" fill="#BC744A"/>
<path d="M34.9812 21.778C33.8046 20.7422 30.9808 21.145 29.7781 21.914C29.5428 22.0657 29.2865 21.7257 29.4852 21.5321C30.2958 20.7213 31.6554 20.6742 32.7378 20.716C33.5588 20.7474 34.9027 20.7108 35.1851 21.6681C35.2165 21.778 35.0648 21.8512 34.9812 21.778Z" fill="#3D302A"/>
<path d="M23.5023 22.479C22.7859 22.4266 22.1165 22.2906 21.4001 22.4685C20.6837 22.6464 20.1556 23.0858 19.5176 23.4206C19.3816 23.4938 19.2561 23.3526 19.3137 23.2166C19.9412 21.8303 22.3728 21.3228 23.5859 22.1546C23.7167 22.2488 23.6853 22.4894 23.5023 22.479Z" fill="#3D302A"/>
<path d="M26.3838 26.4236C26.4309 27.5012 26.389 28.605 26.2112 29.6722C26.1485 30.0541 25.657 31.0794 25.7354 31.4037C25.8243 31.7595 26.4466 32.2041 26.661 32.5598C26.7708 32.7377 26.5564 32.9208 26.389 32.8319C25.7511 32.5023 25.019 32.0106 25.155 31.2416C25.2752 30.5249 25.6047 29.8396 25.7145 29.102C25.8504 28.2127 25.8557 27.3181 25.9393 26.4184C25.9603 26.1411 26.3734 26.1306 26.3838 26.4236Z" fill="#CC6144"/>
<path d="M37.6521 39.7891C36.1775 41.5206 33.657 42.682 31.3927 42.75C31.1679 42.7552 31.1103 42.389 31.3404 42.3472C33.7406 41.9025 35.5134 41.076 37.4325 39.5641C37.5841 39.4386 37.7881 39.6321 37.6521 39.7891Z" fill="#CC6144"/>
<path d="M49.0994 45.2556C52.4984 43.6443 54.3182 48.7553 54.6633 51.2611C55.3222 56.0791 53.1887 60.5622 51.2434 64.8257C49.204 69.3037 46.8718 73.6299 44.7853 78.0817C43.7081 80.3887 42.7511 82.748 42.0347 85.191C41.2817 87.7439 41.198 90.5897 40.2725 93.0536C40.147 93.3884 39.713 93.3152 39.6711 92.9699C39.2214 89.4022 40.8006 85.0132 42.0295 81.6756C43.2061 78.4793 44.7278 75.4243 46.2442 72.3797C48.2261 68.4091 50.2341 64.3968 51.8604 60.2641C52.6762 58.1925 53.3508 56.0268 53.4972 53.7878C53.6122 51.9987 52.9586 44.722 49.4811 46.1606C48.9687 46.3803 48.5922 45.4962 49.0994 45.2556Z" fill="#874C2E"/>
<path d="M29.2385 50.7593C24.961 52.3863 26.4565 60.207 27.0422 63.5969C27.7534 67.7243 29.0868 71.7263 30.7602 75.5608C34.018 83.0363 38.4105 89.9729 42.3429 97.0979C42.6671 97.6838 41.7782 98.2069 41.4435 97.6262C36.5542 89.0417 30.985 80.7136 27.7586 71.3078C26.2631 66.9449 25.3061 62.3518 25.2381 57.7274C25.1963 54.6514 25.646 50.911 28.977 49.7863C29.5888 49.5771 29.8294 50.5292 29.2385 50.7593Z" fill="#874C2E"/>
<path d="M34.9439 93.4627C38.2488 93.3633 41.5536 93.2691 44.8585 93.1697C45.3919 93.154 45.7056 93.5987 45.7632 94.0747C46.3854 99.0392 46.5998 104.098 47.3476 109.041C47.4365 109.622 47.1175 110.177 46.4743 110.187C43.2165 110.255 39.9535 110.354 36.6957 110.386C36.5231 110.386 36.3819 110.349 36.2616 110.281C36.2564 110.281 36.2512 110.276 36.246 110.271C36.2146 110.255 36.1832 110.234 36.1518 110.213C36.0002 110.109 35.8799 109.946 35.8224 109.716C34.5622 104.835 34.5622 99.3688 34.0392 94.3624C33.9869 93.8707 34.4942 93.4731 34.9439 93.4627Z" fill="#874C2E"/>
<path d="M21.8288 113.598C21.6876 110.903 21.9543 108.178 21.97 105.479C21.9909 102.685 21.9072 99.8917 21.7555 97.0982C21.6091 94.3936 21.3947 91.6891 21.0862 89.0002C20.7672 86.2276 20.1868 83.4812 19.8939 80.7087C19.8521 80.3372 20.4482 80.2692 20.5371 80.6197C21.1856 83.1673 21.4366 85.8824 21.7451 88.4928C22.0798 91.349 22.3308 94.221 22.4667 97.0982C22.6027 99.8864 22.6184 102.685 22.5556 105.479C22.4929 108.178 22.4929 110.966 21.9386 113.613C21.9333 113.681 21.834 113.66 21.8288 113.598Z" fill="#874C2E"/>
<path d="M49.3137 50.2832C48.4299 53.9085 44.3721 56.9845 40.8057 57.5181C40.5024 57.5651 40.3717 57.1466 40.675 57.0525C42.5157 56.4666 44.2518 55.708 45.7369 54.4473C47.1749 53.2284 48.0534 51.727 49.0627 50.1786C49.1516 50.053 49.3503 50.1315 49.3137 50.2832Z" fill="#874C2E"/>
<path d="M37.433 57.5383C36.8108 57.397 36.1937 57.2506 35.5819 57.0779C35.0328 56.921 34.4576 56.8164 33.9817 56.4973C33.8406 56.4031 33.8928 56.1782 34.0706 56.1729C35.1949 56.1416 36.5022 56.7641 37.5481 57.1355C37.7991 57.2192 37.6997 57.5958 37.433 57.5383Z" fill="#874C2E"/>
<path d="M43.4938 23.5673C43.1487 23.039 42.6153 24.6816 42.5944 24.8176C42.495 25.4558 42.6257 26.026 42.7878 26.6381C42.8506 26.8683 42.1394 26.6852 42.0558 26.523C41.5956 25.6337 41.559 24.0852 42.359 23.3529C42.861 22.8977 43.8337 23.0233 44.1945 23.5935C44.3618 23.8498 43.6088 23.7452 43.4938 23.5673Z" fill="#CC6144"/>
<path d="M42.364 24.8276C42.3692 24.7596 42.364 24.6916 42.3431 24.6236C42.3379 24.6026 42.3379 24.5869 42.3588 24.5712C42.6411 24.226 43.0856 24.0638 43.5144 24.226C43.5406 24.2364 43.6295 24.2783 43.5929 24.3201C43.4883 24.43 43.2896 24.4248 43.1588 24.4875C43.049 24.5399 42.9706 24.6131 42.8765 24.6916C42.7823 24.7753 42.6673 24.8119 42.5732 24.8904C42.5261 24.927 42.364 24.8904 42.364 24.8276Z" fill="#CC6144"/>
<path d="M30.4054 38.2565C30.008 38.8058 29.1556 39.0935 28.5386 38.7221C28.4915 38.6959 28.4968 38.6593 28.5543 38.6645C29.1033 38.6907 29.6053 38.5338 29.9348 38.0734C30.0132 37.9635 30.4995 38.1257 30.4054 38.2565Z" fill="#CC6144"/>
<path d="M34.2856 27.2973C34.3483 27.721 34.3327 28.061 34.0921 28.4324C33.8882 28.7463 33.6215 28.9817 33.245 29.055C33.2031 29.0654 32.9835 29.0183 33.0358 28.9451C33.2397 28.6626 33.5483 28.5005 33.7261 28.1866C33.883 27.9041 34.0294 27.5745 34.0503 27.2502C34.0503 27.1874 34.2751 27.2449 34.2856 27.2973Z" fill="#CC6144"/>
<path d="M21.7396 29.8873C21.7027 29.8873 21.6027 29.8292 21.6869 29.8292C21.7291 29.8292 21.8239 29.8873 21.7396 29.8873Z" fill="#CC6144"/>
<path d="M21.159 29.7761C20.8135 29.5982 20.3267 29.0803 20.6513 28.688C20.6774 28.6566 20.7769 28.6932 20.7874 28.7246C20.9496 29.096 20.9863 29.4936 21.3841 29.6976C21.6197 29.8179 21.269 29.8284 21.159 29.7761Z" fill="#CC6144"/>
<path d="M21.6772 92.6767C21.5308 90.4534 20.5111 88.7167 19.1515 86.9956C18.0952 85.6616 16.7774 84.7984 15.5643 83.6476C15.4335 83.522 15.5695 83.2866 15.742 83.3389C17.5095 83.8934 18.9423 85.6878 19.9987 87.1211C21.1073 88.6225 22.6446 90.7412 21.9648 92.7081C21.9125 92.8755 21.6929 92.8441 21.6772 92.6767Z" fill="#874C2E"/>
<path d="M21.944 94.0007C21.3844 93.3154 21.0288 92.4837 20.5373 91.7461C19.9568 90.8777 19.277 90.0668 18.5292 89.3344C18.3828 89.1932 16.9971 87.7755 16.8611 88.9107C16.7775 89.6274 18.2103 89.8994 18.6338 90.1558C19.1097 90.4435 19.4287 90.6684 19.4287 91.2543C19.4287 91.4426 19.1463 91.5368 19.0574 91.3537C18.4926 90.2185 16.4585 90.2604 16.2441 88.7381C16.1604 88.126 16.6467 87.7389 17.2428 87.8017C18.3148 87.9168 19.4287 89.4757 20.0301 90.2238C20.8667 91.27 21.855 92.5726 22.059 93.9275C22.0694 93.9903 21.991 94.0583 21.944 94.0007Z" fill="#874C2E"/>
<path d="M42.7043 121.586C42.6991 123.396 42.7305 125.148 43.3685 126.869C44.0012 128.585 45.1464 129.893 46.2027 131.342C46.2812 131.452 46.1295 131.577 46.0249 131.52C42.9292 129.804 41.3604 124.834 42.422 121.549C42.469 121.397 42.7043 121.418 42.7043 121.586Z" fill="#874C2E"/>
<path d="M28.9144 104.934C29.3589 107.722 29.8713 110.264 31.3146 112.744C32.7474 115.208 34.7868 117.347 37.1765 118.896C37.37 119.021 37.1975 119.32 36.9988 119.204C32.2036 116.474 28.1666 110.719 28.5013 104.991C28.5118 104.771 28.8726 104.688 28.9144 104.934Z" fill="#874C2E"/>
<path d="M13.2061 33.9619C12.6047 33.7161 11.8308 33.4806 11.449 32.9209C11.3915 32.8372 11.47 32.7274 11.5641 32.7221C12.223 32.7012 12.8609 33.1877 13.3943 33.5173C13.6139 33.6585 13.4727 34.0665 13.2061 33.9619Z" fill="#874C2E"/>
<path d="M13.1222 35.5266C12.7562 35.7777 12.1653 36.0079 11.7469 35.7515C11.6267 35.6783 11.6214 35.4952 11.7469 35.422C11.9195 35.3226 12.1234 35.2964 12.3117 35.2493C12.5209 35.197 12.7248 35.1342 12.9183 35.0505C13.2111 34.9354 13.3471 35.3696 13.1222 35.5266Z" fill="#874C2E"/>
<path d="M13.8962 38.3004C13.5406 38.5097 13.07 38.8497 12.6359 38.8235C12.5314 38.8183 12.4529 38.7032 12.5104 38.609C12.7405 38.2376 13.2687 38.0545 13.6504 37.8871C13.9276 37.7564 14.1733 38.133 13.8962 38.3004Z" fill="#874C2E"/>
</svg>
