<svg width="108" height="45" viewBox="0 0 108 45" fill="none" xmlns="http://www.w3.org/2000/svg">
<path d="M19.0823 40.5566H106.468C107.31 40.5566 108 41.2412 108 42.0891V42.1997C108 43.0423 107.316 43.7322 106.468 43.7322H19.0823C18.24 43.7322 17.5504 43.0475 17.5504 42.1997V42.0891C17.5504 41.2412 18.2347 40.5566 19.0823 40.5566Z" fill="#2D2442"/>
<path d="M2.0211 1.61284C20.2037 1.42852 38.3862 1.24419 56.5688 1.05987C59.1482 1.03354 61.733 1.00721 64.3124 0.980879C64.7125 0.975613 65.2284 1.21259 65.4021 1.60229C70.3978 13.1407 75.3936 24.6791 80.3893 36.2174C81.1 37.8658 81.8159 39.5089 82.5266 41.1572C82.5529 41.2099 82.5634 41.2678 82.5792 41.3204C82.5792 41.3204 82.5792 41.3205 82.5792 41.3257C82.595 41.3784 82.6108 41.431 82.6213 41.4837C82.7635 42.1525 82.4266 42.9372 81.6053 43.0373C81.4158 43.0952 81.2211 43.1057 81.0315 43.0583C62.3436 43.2058 43.6557 43.348 24.9677 43.4954C22.2988 43.5165 19.6298 43.5375 16.9661 43.5586C16.3713 43.5639 15.9502 43.1584 15.7501 42.6317C10.7702 29.4872 5.785 16.3426 0.80507 3.19797C0.50501 2.42383 1.26306 1.6181 2.0211 1.61284Z" fill="#2D2442"/>
<path d="M2.0212 0.748837C18.8035 0.580317 35.591 0.411796 52.3733 0.238009C54.4159 0.216944 56.4636 0.195882 58.5062 0.174817C60.3539 0.153752 62.4912 -0.167483 64.3178 0.116896C67.0289 0.538197 67.7238 4.79859 68.6503 6.9367C71.9825 14.6307 75.3095 22.3247 78.6418 30.0135C80.0684 33.3101 81.5002 36.6016 82.9216 39.8982C83.4585 41.1411 83.9797 42.6472 82.5689 43.5899C81.8529 44.0691 80.7738 43.9164 79.9999 43.9269C77.9258 43.9533 75.8465 43.9585 73.7724 43.9743C69.6189 44.0059 65.4654 44.0375 61.312 44.0691C53.0051 44.1323 44.6981 44.2008 36.3965 44.264C32.2535 44.2956 28.1159 44.3272 23.9729 44.3588C22.3042 44.3693 20.6407 44.3851 18.9719 44.3956C17.6875 44.4062 16.4135 44.6537 15.4186 43.7057C14.3394 42.6788 13.9762 40.3459 13.4656 39.003C12.7391 37.0808 12.0074 35.1533 11.2809 33.2311C9.58059 28.7443 7.88024 24.2522 6.17991 19.7653C4.60065 15.5997 3.02138 11.4288 1.44212 7.2632C0.652483 5.17776 -1.54796 1.62303 1.80008 0.759364C2.87924 0.480252 3.33723 2.14966 2.25806 2.42878C1.15258 2.71315 4.9165 11.5868 5.29025 12.5769C6.50629 15.784 7.72231 18.9912 8.93307 22.1931C10.1491 25.4002 11.3652 28.6074 12.5759 31.8093C13.1234 33.2522 13.6709 34.6952 14.2184 36.1381C14.8132 37.7127 15.2449 40.0404 16.224 41.4254C17.4822 43.216 20.109 42.6525 21.9725 42.6367C23.6676 42.6209 25.3574 42.6104 27.0525 42.5946C30.5111 42.5682 33.9749 42.5419 37.4335 42.5156C44.356 42.4629 51.2784 42.405 58.2008 42.3523C65.1233 42.2997 72.0457 42.2417 78.9681 42.1891C79.6841 42.1838 80.8948 42.4892 81.4002 41.852C82.0477 41.041 81.6792 42.2101 81.4371 40.7514C81.2318 39.5349 80.321 38.1762 79.8315 37.0439C78.3838 33.6999 76.9362 30.361 75.4885 27.017C72.7143 20.6079 69.94 14.1936 67.1605 7.78457C66.5446 6.36268 66.0498 4.13505 65.0812 2.97647C63.7862 1.42819 61.7331 1.84422 59.9643 1.86528C56.3847 1.90215 52.8103 1.93902 49.2306 1.97589C33.4959 2.13387 17.7612 2.29185 2.02644 2.4551C0.905157 2.4867 0.905188 0.75937 2.0212 0.748837Z" fill="#2D2442"/>
<path d="M43.8868 26.6433C41.558 26.6433 39.6701 25.2664 39.6701 23.5678C39.6701 21.8693 41.558 20.4923 43.8868 20.4923C46.2156 20.4923 48.1034 21.8693 48.1034 23.5678C48.1034 25.2664 46.2156 26.6433 43.8868 26.6433Z" fill="#5A4F72"/>
<path d="M35.7805 25.4845C34.5652 25.4845 33.5801 24.7677 33.5801 23.8835C33.5801 22.9993 34.5652 22.2826 35.7805 22.2826C36.9958 22.2826 37.9809 22.9993 37.9809 23.8835C37.9809 24.7677 36.9958 25.4845 35.7805 25.4845Z" fill="#5A4F72"/>
</svg>
