<svg width="80" height="60" viewBox="0 0 80 60" fill="none" xmlns="http://www.w3.org/2000/svg">
<path d="M9.71582 0H65.4645C70.2018 0 74.2482 3.41954 75.0439 8.09065L79.8597 36.4262C80.87 42.3594 76.2949 47.7741 70.2804 47.7741H69.9977L72.1701 59.389L61.4495 47.7741H14.5369C9.79959 47.7741 5.7532 44.3546 4.95754 39.6835L0.141711 11.3479C-0.873807 5.41471 3.70124 0 9.71582 0Z" fill="#699DEE"/>
<path d="M41.7047 10.6819C35.7634 11.0013 29.8064 11.0799 23.8599 11.2108C20.9285 11.2736 17.9971 11.3417 15.0657 11.4046C12.0872 11.4726 8.98307 11.7868 6.01504 11.5145C5.7062 11.4883 5.57532 10.9751 5.93651 10.928C8.75273 10.5405 11.7051 10.6976 14.5527 10.6295C17.5678 10.5614 20.5882 10.4934 23.6033 10.4253C29.6336 10.2891 35.6744 10.0901 41.7047 10.1477C42.0554 10.1425 42.0554 10.6662 41.7047 10.6819Z" fill="white"/>
<path d="M43.3114 17.9095C37.5062 18.2447 31.6958 18.407 25.8854 18.3808C23.022 18.3704 20.1534 18.3128 17.2901 18.208C14.5001 18.1085 11.6263 18.1347 8.86238 17.7053C8.46979 17.6425 8.5797 17.0402 8.95136 17.035C11.8042 16.9617 14.6938 17.2916 17.5466 17.3911C20.41 17.4906 23.2733 17.543 26.1419 17.5534C31.8685 17.5692 37.59 17.4068 43.3062 17.0717C43.8558 17.0402 43.8506 17.8834 43.3114 17.9095Z" fill="white"/>
<path d="M43.2698 23.6798C38.0247 24.1563 32.7535 24.6747 27.4874 24.8737C22.2319 25.0727 16.9344 24.7585 11.6841 24.5752C10.9931 24.5491 10.9879 23.4651 11.6841 23.4965C16.9397 23.7007 22.2214 24.0935 27.4874 23.9207C32.7535 23.7478 38.0038 23.1823 43.2698 22.9885C43.72 22.9728 43.7095 23.6379 43.2698 23.6798Z" fill="white"/>
<path d="M69.9879 29.0318C55.0378 30.2728 39.9569 30.3514 24.9649 30.4823C21.3949 30.5137 17.7987 30.587 14.234 30.4299C13.6477 30.4038 13.6425 29.5292 14.234 29.5188C21.1594 29.3564 28.0952 29.5031 35.0206 29.435C43.1081 29.3564 51.1956 29.215 59.2779 28.948C62.8479 28.8275 66.4232 28.7385 69.9932 28.529C70.3125 28.5081 70.3072 29.0056 69.9879 29.0318Z" fill="white"/>
<path d="M70.6203 34.1213C55.8378 35.3519 40.9401 35.5719 26.1156 35.7604C22.5875 35.8075 19.0332 35.8913 15.5051 35.7342C14.9188 35.708 14.9136 34.8335 15.5051 34.823C22.4252 34.6607 29.3611 34.7707 36.2865 34.6659C44.2012 34.5455 52.1212 34.3622 60.0307 34.0637C63.5641 33.9328 67.0974 33.8281 70.6256 33.6186C70.9449 33.5977 70.9397 34.0951 70.6203 34.1213Z" fill="white"/>
<path d="M67.815 7.80758C68.5112 10.3526 68.574 12.9814 68.5845 15.605C68.5897 16.9351 68.5897 18.2704 68.6892 19.6006C68.7939 20.9935 69.2911 22.3341 69.3644 23.7113C69.3906 24.1984 68.7049 24.345 68.4693 23.9522C67.9144 23.0201 67.8411 21.8261 67.7155 20.7579C67.548 19.3597 67.5271 17.9562 67.5271 16.5476C67.5218 13.6988 67.5899 10.8606 66.7785 8.0956C66.5796 7.42531 67.6318 7.13729 67.815 7.80758Z" fill="white"/>
<path d="M66.768 8.16411C60.0415 8.29503 53.3516 8.51497 46.6618 9.26382C46.8659 8.99675 47.0701 8.72444 47.2742 8.45737C47.9914 13.5945 48.452 18.716 48.4415 23.9055C48.4415 24.9214 46.8555 24.9267 46.8607 23.9055C46.8973 18.805 46.6775 13.6836 46.0231 8.62494C45.976 8.25838 46.3529 8.01749 46.6618 7.98607C53.3202 7.31054 60.0781 6.95445 66.768 7.35767C67.2809 7.38909 67.2914 8.15364 66.768 8.16411Z" fill="white"/>
<path d="M68.1967 24.6755C64.8832 24.2984 61.554 24.1623 58.2248 24.3089C56.6439 24.377 55.063 24.5079 53.4874 24.6912C52.5714 24.8012 51.6553 24.9373 50.7445 25.0735C49.9645 25.1887 49.3782 25.3929 48.6349 25.1049C48.2528 24.9583 48.0067 24.4346 48.3732 24.1152C49.4463 23.1673 51.3674 23.2406 52.7441 23.0993C54.482 22.9212 56.2304 22.8165 57.9735 22.7798C61.4545 22.7117 64.9199 22.9526 68.3642 23.4344C69.0657 23.5339 68.9086 24.754 68.1967 24.6755Z" fill="white"/>
<path d="M65.0926 10.9917C65.3438 13.6938 65.5427 16.4064 65.6579 19.119C65.684 19.784 64.611 19.7893 64.6214 19.119C64.6738 16.4011 64.611 13.7043 64.4068 10.9917C64.3754 10.5518 65.0507 10.557 65.0926 10.9917Z" fill="white"/>
<path d="M65.0255 19.6378C59.7333 19.9729 54.373 20.2452 49.0703 20.2557C48.3898 20.2557 48.4003 19.2451 49.0703 19.2084C54.3625 18.8994 59.7228 18.8523 65.0255 18.8628C65.528 18.8628 65.5227 19.6064 65.0255 19.6378Z" fill="white"/>
<path d="M62.6484 17.3802C62.439 16.7466 62.2244 16.1077 62.0151 15.4741C61.8371 14.9399 61.68 13.8769 61.2927 13.4684C60.2143 12.3321 58.6858 15.8144 58.356 16.3015C57.7279 17.2336 56.6077 17.9405 55.7806 16.7728C55.2258 15.9925 55.1996 14.9347 54.7861 14.0916C54.7599 13.6465 54.5191 13.3794 54.0637 13.2904C53.87 13.5365 53.6763 13.7774 53.4879 14.0235C53.1738 14.4215 52.8702 14.9085 52.4567 15.2227C52.0484 15.5317 51.5772 15.6469 51.0904 15.4426C50.2738 15.097 50.2581 13.9502 49.4991 13.6046C47.845 12.8557 50.8967 11.0962 50.7135 12.9081C50.6507 13.5208 51.2527 14.5995 51.9384 14.2434C52.3624 14.0235 52.755 13.3113 53.0796 12.9605C53.4826 12.5206 54.0009 11.8503 54.6971 12.1226C55.1996 12.3216 55.3043 12.929 55.4718 13.3742C55.7126 14.0235 55.9795 14.6676 56.236 15.3065C56.2727 15.8825 56.5711 16.1705 57.1364 16.1758C57.3458 15.9192 57.5395 15.6521 57.7122 15.3693C58.4084 14.3534 59.3349 12.0807 60.9419 12.3478C61.6015 12.4577 61.9051 12.9395 62.1668 13.5051C62.7008 14.6571 63.0044 15.9768 63.4022 17.1812C63.554 17.6473 62.8055 17.8515 62.6484 17.3802Z" fill="white"/>
</svg>
