<svg width="305" height="201" viewBox="0 0 305 201" fill="none" xmlns="http://www.w3.org/2000/svg">
<path d="M10.4599 129.056C17.8458 117.309 27.9637 107.95 38.4679 99.5267C47.2695 92.4619 56.9798 85.188 60.6101 73.9167C62.595 67.7716 62.5375 60.9784 64.7679 54.9378C67.7401 46.8854 76.949 37.1294 84.7946 33.6127C96.798 28.2304 111.303 36.3926 123.767 32.1966C128.917 30.4617 130.275 27.154 133.822 23.6791C137.619 19.9585 142.184 16.7187 146.572 13.735C155.175 7.88248 164.703 3.17956 174.961 1.1364C193.029 -2.46395 212.304 2.67791 227.217 13.9074C236.18 20.6587 243.592 29.5159 249.134 39.4704C254.431 48.9912 256.771 59.5467 261.676 69.1615C270.869 87.1789 289.95 97.1648 298.976 115.287C305.615 128.627 305.887 144.931 302.392 159.64C298.898 174.345 291.945 187.759 284.643 200.681C284.606 200.739 284.575 200.791 284.544 200.843H272.488C226.48 200.687 28.2561 200.07 23.5446 201H14.3827C7.70195 195.179 1.6062 179.1 0.389126 169.391C-1.38683 155.262 3.07921 140.803 10.4599 129.056Z" fill="#FFDF80"/>
</svg>
