<svg width="53" height="41" viewBox="0 0 53 41" fill="none" xmlns="http://www.w3.org/2000/svg">
<path d="M40.5079 0H0V40.5615H40.5079V0Z" fill="#E04E3B"/>
<path d="M52.9999 0H12.4906V40.5615H52.9999V0Z" fill="#EE9849"/>
<path d="M33.1746 27.0487C31.5406 27.0557 30.2209 28.3869 30.2279 30.023C30.2349 31.659 31.5644 32.9791 33.1983 32.9735C34.8322 32.9665 36.1506 31.6353 36.145 29.9992C36.1394 28.3631 34.8085 27.0417 33.1746 27.0487Z" fill="#EBF2F9"/>
<path d="M33.1998 13.0584C34.8337 13.0514 36.1535 11.7202 36.1465 10.0842C36.1395 8.4481 34.81 7.12807 33.1761 7.13366C31.5421 7.14065 30.2224 8.47187 30.2294 10.1079C30.2363 11.744 31.5658 13.0654 33.1998 13.0584Z" fill="#EBF2F9"/>
<path d="M45.8158 17.2665L20.4618 17.3717L20.4863 23.2964L45.8404 23.1913L45.8158 17.2665Z" fill="#EBF2F9"/>
</svg>
