<svg width="251" height="190" viewBox="0 0 251 190" fill="none" xmlns="http://www.w3.org/2000/svg">
<path d="M107.651 64.2262L97.7373 182.255C97.7373 182.255 96.6984 189.41 102.014 189.423C110.752 189.444 145.51 189.423 145.51 189.423C145.51 189.423 138.932 187.933 139.013 184.582C139.107 180.632 150.6 63.1095 150.6 63.1095L107.651 64.2262Z" fill="#E04E3B"/>
<path d="M148.329 187.281C146.61 187.286 113.412 187.391 104.902 187.281C101.194 187.235 100.543 183.979 100.512 181.871C100.497 180.861 100.625 180.115 100.625 180.115L100.883 177.047L101.54 169.229L102.12 162.321L102.866 153.445L103.494 145.952L110.538 62.0842L153.488 60.9689C153.488 60.9689 148.647 110.152 145.222 145.953C144.841 149.942 144.477 153.767 144.141 157.337C144.031 158.478 143.927 159.591 143.825 160.676C143.507 164.064 143.217 167.173 142.966 169.92C142.832 171.368 142.71 172.712 142.599 173.944C142.161 178.773 141.906 181.856 141.903 182.441C141.902 182.783 141.931 183.1 141.986 183.397C142.691 187.158 147.685 187.281 148.329 187.281Z" fill="#FF6652"/>
<path d="M209.545 0H3.34573L27.4939 97.1234L30.8008 110.424L42.0479 155.662H251L209.545 0Z" fill="#FF6652"/>
<path d="M3.34577 0L0 1.1167L37.598 159.041L42.0479 155.662L3.34577 0Z" fill="#FF6652"/>
<path d="M37.598 159.041H245.264L250.999 155.662H42.0479L37.598 159.041Z" fill="#E04E3B"/>
<path d="M110.524 189.469H155.488V187.33L110.524 187.33V189.469Z" fill="#FF6652"/>
<path d="M144.057 159.04L143.825 160.675L101.54 169.229L102.121 162.322L102.397 159.04H144.057Z" fill="#E04E3B"/>
<path opacity="0.4" d="M148.33 187.281C146.61 187.287 113.412 187.391 104.902 187.281C101.194 187.235 100.543 183.98 100.512 181.872L142.598 173.944C142.16 178.772 141.905 181.855 141.902 182.44C141.9 182.783 141.93 183.1 141.985 183.396C142.691 187.159 147.685 187.281 148.33 187.281Z" fill="#E04E3B"/>
<path opacity="0.4" d="M131.121 125.082L42.0478 155.662L34.4409 125.064L131.121 125.082Z" fill="#E04E3B"/>
<path d="M209.545 0H3.34573L34.423 125.063L243.001 125.103L209.545 0Z" fill="#8434DC"/>
<path d="M152.063 140.918C151.467 137.85 148.5 135.363 145.436 135.363C142.373 135.363 140.371 137.849 140.967 140.918C141.563 143.986 144.53 146.474 147.593 146.474C150.657 146.473 152.659 143.986 152.063 140.918Z" fill="#E04E3B"/>
<path d="M233.277 119.681H40.2119L18.3469 32.4689L16.6706 25.7812L15.2401 20.0767L11.8873 6.70002H202.169L205.852 20.0767L207.423 25.7812L209.263 32.4689L233.277 119.681Z" fill="#E9F3FE"/>
<path d="M202.169 6.70002H11.8873L15.2401 20.0767H205.852L202.169 6.70002Z" fill="#9C4DF4"/>
<path d="M79.939 41.2988H99.1872L101.684 50.9597H82.4361L79.939 41.2988Z" fill="#8434DC"/>
<path d="M44.1715 50.9594H63.4184L65.8017 60.1794H46.6048L44.1715 50.9594Z" fill="#8434DC"/>
<path d="M137.877 41.2988H157.125L159.622 50.9597H140.374L137.877 41.2988Z" fill="#8434DC"/>
<path d="M142.759 60.8402H162.007L164.39 70.0603H145.192L142.759 60.8402Z" fill="#8434DC"/>
<path d="M128.424 79.9412H167.024L169.417 89.602H130.921L128.424 79.9412Z" fill="#8434DC"/>
<path d="M211.986 41.0174H20.2748V41.5792H211.986V41.0174Z" fill="#9C4DF4"/>
<path d="M214.591 50.678H23.0274V51.2398H214.591V50.678Z" fill="#9C4DF4"/>
<path d="M217.197 60.3386H24.9289V60.9004H217.197V60.3386Z" fill="#9C4DF4"/>
<path d="M219.801 70.0002H27.7607V70.562H219.801V70.0002Z" fill="#9C4DF4"/>
<path d="M222.405 79.661H30.1996V80.2228H222.405V79.661Z" fill="#9C4DF4"/>
<path d="M225.01 89.3223H32.4954V89.8842H225.01V89.3223Z" fill="#9C4DF4"/>
<path d="M227.616 98.981H34.8621V99.5428H227.616V98.981Z" fill="#9C4DF4"/>
<path d="M230.221 108.642H37.4551V109.203H230.221V108.642Z" fill="#9C4DF4"/>
<path d="M21.0122 11.0735C20.09 11.0735 19.5289 11.8216 19.7581 12.745C19.9886 13.6684 20.9219 14.4166 21.8441 14.4166C22.7664 14.4166 23.3275 13.6684 23.0983 12.745C22.8691 11.8216 21.9358 11.0735 21.0122 11.0735Z" fill="#E9F3FE"/>
<path d="M26.5622 11.0735C25.64 11.0735 25.0788 11.8216 25.308 12.745C25.5386 13.6684 26.4719 14.4166 27.3941 14.4166C28.3163 14.4166 28.8774 13.6684 28.6482 12.745C28.4177 11.8216 27.4844 11.0735 26.5622 11.0735Z" fill="#E9F3FE"/>
<path d="M34.6232 12.745C34.3927 11.8216 33.4593 11.0735 32.5371 11.0735C31.6149 11.0735 31.0538 11.8216 31.283 12.745C31.5135 13.6684 32.4469 14.4166 33.3691 14.4166C34.2913 14.4166 34.8524 13.6684 34.6232 12.745Z" fill="#E9F3FE"/>
<path d="M215.417 119.752L215.959 119.61L193.434 32.4691H209.263L207.423 25.7814H191.705L191.687 25.7119L191.416 25.7814H172.457L172.439 25.7119L172.168 25.7814H153.21L153.192 25.7119L152.92 25.7814H133.962L133.944 25.7119L133.673 25.7814H114.713L114.695 25.7119L114.425 25.7814H95.4666L95.4471 25.7119L95.1763 25.7814H76.2183L76.2002 25.7119L75.928 25.7814H56.97L56.9519 25.7119L56.6811 25.7814H37.7217L37.7036 25.7119L37.4328 25.7814H16.6706L18.347 32.4691H38.8717L61.4338 119.752L61.9754 119.61L39.4508 32.4691H58.12L80.6807 119.752L81.2237 119.61L58.6991 32.4691H77.3682L99.929 119.752L100.472 119.61L77.9474 32.4691H96.6152L119.177 119.752L119.719 119.61L97.1943 32.4691H115.863L138.426 119.752L138.967 119.61L116.443 32.4691H135.112L157.672 119.752L158.216 119.61L135.691 32.4691H154.36L176.921 119.752L177.464 119.61L154.938 32.4691H173.607L196.169 119.752L196.711 119.61L174.186 32.4691H192.855L215.417 119.752Z" fill="#9C4DF4"/>
</svg>
