<svg width="7" height="36" viewBox="0 0 7 36" fill="none" xmlns="http://www.w3.org/2000/svg">
<path d="M2.41469 0.432235C1.95493 1.19702 1.50051 1.96181 1.04074 2.72125C0.949861 3.22933 0.858972 3.74276 0.768088 4.25083C0.719974 4.81239 0.746704 5.38465 0.784126 5.94086C0.885702 7.46509 1.25994 8.96258 1.5112 10.4708C1.987 13.3748 2.35587 16.2949 2.85306 19.199C3.81001 24.7932 5.08772 30.3178 6.8947 35.7035C6.99627 36.003 6.53117 36.126 6.42959 35.8318C3.90624 28.6332 2.5323 21.1564 1.40427 13.6262C0.885704 10.1392 -2.08672 1.82276 2.60714 0.015078C2.79426 -0.0597964 2.97603 0.159482 2.92791 0.335972C2.91187 0.389454 2.89583 0.442932 2.88513 0.491065C2.7996 0.753126 2.42538 0.694296 2.41469 0.432235Z" fill="#9B8580"/>
</svg>
