<svg width="5" height="5" viewBox="0 0 5 5" fill="none" xmlns="http://www.w3.org/2000/svg">
<path d="M3.74816 4.30005C3.51413 3.04774 3.40527 1.77366 3.25832 0.510466C3.32363 0.624807 3.38894 0.739147 3.45426 0.858933C3.22566 0.706479 1.01049 3.37443 0.760129 3.65756C0.694817 3.4071 0.629505 3.15664 0.564192 2.90618C1.52755 3.29821 2.49634 3.6739 3.45426 4.07681C3.98764 4.30005 3.76449 5.18755 3.20934 4.96432C2.24054 4.57774 1.28807 4.16937 0.324713 3.7719C0.00903702 3.64123 -0.116145 3.29276 0.128776 3.02052C0.743799 2.32903 1.36427 1.65387 2.02283 1.00594C2.39293 0.641139 2.95353 -0.115689 3.574 0.0149865C4.17814 0.145662 4.09105 0.804484 4.14004 1.28363C4.23801 2.25825 4.3523 3.23831 4.38496 4.21838C4.38496 4.56684 3.81347 4.65941 3.74816 4.30005Z" fill="white"/>
</svg>
