<svg width="36" height="24" viewBox="0 0 36 24" fill="none" xmlns="http://www.w3.org/2000/svg">
<path d="M31.7897 23.1207C29.3911 24.8493 14.393 22.7289 9.54752 20.5065C-0.293767 15.9919 -1.25965 8.0417 1.04237 6.54937C1.3214 6.36685 1.62727 6.22728 1.9546 6.18433C2.72731 6.09308 3.43562 6.57084 4.06344 7.02713C3.81661 6.12528 2.92048 2.21193 5.30837 0.655172C8.51725 -1.43302 12.5525 2.0992 13.2125 2.53938C17.7897 5.60458 20.2635 6.12528 20.2635 6.12528C20.2635 6.12528 19.4586 -1.59944 25.7797 4.33233C27.7705 6.20044 31.4677 7.94507 33.4532 9.82391C35.5352 11.794 36.7211 15.0095 35.5191 17.758" fill="#433735"/>
</svg>
