<svg width="56" height="50" viewBox="0 0 56 50" fill="none" xmlns="http://www.w3.org/2000/svg">
<path d="M32.4521 28.296C32.4521 28.296 28.9742 24.2328 32.2378 21.6531C32.2378 21.6531 34.6209 20.2086 36.5657 20.3256C36.5657 20.3256 33.8112 24.9502 34.7029 25.4098C35.5947 25.8695 37.4004 20.0358 37.4004 20.0358C37.4004 20.0358 42.8245 19.5093 44.5704 20.3492C44.5704 20.3492 39.9337 24.1492 40.9103 24.3749C41.8869 24.6005 46.8964 20.8716 46.8964 20.8716C46.8964 20.8716 51.9449 21.7324 51.6765 24.815C51.408 27.899 49.6676 28.8504 48.9025 28.7696C48.1373 28.6874 43.6648 26.9783 43.5674 27.6051C43.47 28.2319 46.1619 30.2823 48.0469 30.3784C48.0469 30.3784 44.487 34.3093 42.122 33.1741C39.757 32.0402 39.5539 30.2419 38.0793 29.5678C36.6047 28.8936 35.3457 28.895 35.955 29.5831C36.5643 30.2712 39.2326 30.9398 40.0756 32.433C40.9186 33.9263 41.6754 34.9334 39.2284 34.5656C36.7813 34.1965 32.8026 32.4038 32.6273 30.3506C32.4521 28.2974 32.4521 28.296 32.4521 28.296Z" fill="#82B378"/>
<path d="M49.193 24.8983C49.193 24.8983 35.4804 24.3689 32.4518 28.2956C32.4518 28.2956 31.7827 30.3043 29.721 32.1332L29.3997 33.0094C29.3997 33.0094 31.7757 30.5007 32.6257 30.3488C32.6271 30.3488 31.2972 25.4847 49.193 24.8983Z" fill="#82B378"/>
<path d="M29.7211 32.1339C29.7211 32.1339 26.7774 34.3139 26.5729 38.2072L27.1071 38.2545C27.1071 38.2545 28.0476 34.2275 29.7462 32.6535C31.4462 31.0794 29.7211 32.1339 29.7211 32.1339Z" fill="#82B378"/>
<path d="M20.2919 23.1876C20.2919 23.1876 25.8245 20.0855 23.2425 15.876C23.2425 15.876 21.1767 13.2907 18.9647 12.6263C18.9647 12.6263 20.1444 18.9043 18.9647 19.0519C17.785 19.1996 18.1537 11.9618 18.1537 11.9618C18.1537 11.9618 12.3261 9.15505 10.0391 9.37653C10.0391 9.37653 13.6533 15.5069 12.4736 15.3592C11.2939 15.2116 7.23591 9.00741 7.23591 9.00741C7.23591 9.00741 1.2609 7.90001 0.302394 11.4451C-0.656112 14.9901 0.892246 16.7633 1.77841 16.9848C2.66319 17.2063 8.34327 17.1325 8.19581 17.8707C8.04834 18.609 4.21293 19.7916 2.07334 19.1258C2.07334 19.1258 4.43412 24.9608 7.53223 24.6655C10.6303 24.3702 11.5888 22.4493 13.5072 22.3017C15.4256 22.154 16.8265 22.6708 15.868 23.1876C14.9095 23.7044 11.664 23.3575 10.1142 24.6753C8.56446 25.9944 7.31103 26.8065 10.1879 27.3971C13.0648 27.9877 18.2288 27.6186 19.2611 25.4024C20.2919 23.1876 20.2919 23.1876 20.2919 23.1876Z" fill="#A8D29F"/>
<path d="M3.03188 12.5525C3.03188 12.5525 18.5224 17.5755 20.2933 23.1877C20.2933 23.1877 20.2196 25.6992 21.768 28.5798V29.6872C21.768 29.6872 20.1445 25.9206 19.2597 25.4039C19.2597 25.4039 22.7265 20.5285 3.03188 12.5525Z" fill="#82B378"/>
<path d="M21.7679 28.5799C21.7679 28.5799 24.1565 32.2127 22.7945 36.6339L22.1797 36.4681C22.1797 36.4681 22.7765 31.5984 21.5258 29.1482C20.2765 26.6994 21.7679 28.5799 21.7679 28.5799Z" fill="#82B378"/>
<path d="M29.0937 18.9092C29.0937 18.9092 21.8013 14.8195 25.2041 9.27C25.2041 9.27 27.9266 5.86285 30.8438 4.98668C30.8438 4.98668 29.2885 13.2622 30.8438 13.4572C32.3991 13.6522 31.9136 4.11051 31.9136 4.11051C31.9136 4.11051 39.5956 0.410852 42.6088 0.703371C42.6088 0.703371 37.8441 8.78386 39.3994 8.58885C40.9547 8.39383 46.3037 0.21584 46.3037 0.21584C46.3037 0.21584 54.179 -1.24398 55.4436 3.42936C56.7082 8.1027 54.6659 10.4387 53.4988 10.7312C52.3316 11.0237 44.8444 10.9262 45.0391 11.8999C45.2339 12.8736 50.2894 14.4309 53.1092 13.5547C53.1092 13.5547 49.9972 21.2466 45.9142 20.8565C41.8298 20.4665 40.5666 17.9355 38.0389 17.7405C35.5111 17.5455 33.6637 18.228 34.9268 18.9092C36.1914 19.5903 40.4692 19.1321 42.5114 20.8705C44.5536 22.6089 46.2063 23.68 42.414 24.4587C38.6217 25.2373 31.8162 24.7512 30.4543 21.8302C29.0937 18.9092 29.0937 18.9092 29.0937 18.9092Z" fill="#A8D29F"/>
<path d="M51.8461 4.88924C51.8461 4.88924 31.4267 11.5099 29.0937 18.9092C29.0937 18.9092 29.1911 22.2189 27.1489 26.0161V27.4759C27.1489 27.4759 29.2885 22.51 30.4543 21.8289C30.4557 21.8303 25.8857 15.4032 51.8461 4.88924Z" fill="#82B378"/>
<path d="M27.1489 26.016C27.1489 26.016 23.9993 30.8036 25.7953 36.6331L26.6049 36.4158C26.6049 36.4158 25.8189 29.9957 27.4661 26.7668C29.1146 23.538 27.1489 26.016 27.1489 26.016Z" fill="#82B378"/>
<path d="M28.8477 49.2718C36.7369 49.2718 43.1321 42.8684 43.1321 34.969H14.5633C14.5633 42.8684 20.9584 49.2718 28.8477 49.2718Z" fill="#FF6652"/>
<path d="M32.363 49.1632C31.7815 49.2357 31.1903 49.2733 30.5879 49.2733C22.6987 49.2733 16.3035 42.8685 16.3035 34.969H19.8524C19.8537 42.2667 25.3113 48.2871 32.363 49.1632Z" fill="#FFB973"/>
<path d="M41.5682 48.235H16.1281C15.1543 48.235 14.3655 49.0248 14.3655 49.9999H43.3308C43.3308 49.0248 42.542 48.235 41.5682 48.235Z" fill="#FF6652"/>
<path d="M43.4575 34.969H14.093V35.4078H43.4575V34.969Z" fill="#E04E3B"/>
</svg>
