<svg width="74" height="68" viewBox="0 0 74 68" fill="none" xmlns="http://www.w3.org/2000/svg">
<path d="M-0.000160608 10.5979L0.057429 11.0326L0.84262 16.7719L4.15611 41.1065L20.3624 51.0928C21.2104 51.6164 21.938 55.1983 22.2835 56.099C23.4037 59.0158 24.3773 62.0478 25.6598 64.8965C25.9215 65.483 26.1571 67.0697 26.7381 67.4258C27.9054 68.1432 32.6585 67.1587 34.1241 67.0645C39.5524 66.7136 45.0435 65.9177 50.0111 63.5769C53.937 61.7231 57.4181 59.1048 61.1137 56.8583C63.375 55.4863 65.8929 54.6275 68.2798 53.5226C69.8764 52.7842 73.326 51.3703 73.9436 49.4904C74.1216 48.9458 73.8442 48.3697 73.5825 47.867C72.4413 45.6571 71.6823 42.9917 70.337 40.939C69.0964 39.0485 67.5627 37.3414 66.3535 35.3986C63.9142 31.4973 61.7628 27.3761 58.7162 23.8937C53.534 17.9658 49.1736 11.1949 43.8343 5.28797C41.463 2.66442 34.0718 0.166548 30.5384 0.0199224C27.3244 -0.110993 24.2098 0.41791 21.4826 1.17722C19.2893 1.79514 17.342 2.56493 15.8083 3.25616C13.5574 4.27731 12.186 5.14135 12.186 5.14135L-0.000160608 10.5979Z" fill="#EED9CE"/>
</svg>
