<svg width="10" height="47" viewBox="0 0 10 47" fill="none" xmlns="http://www.w3.org/2000/svg">
<path d="M4.43831 0.541103C6.21404 -1.28248 7.95311 1.96644 8.4874 3.44941C9.91217 7.41623 9.06359 12.1481 7.90596 16.0625C6.50214 20.8311 4.15022 25.1962 2.89306 30.0224C1.46305 35.5246 0.410186 41.032 0.62495 46.7386C0.640664 47.0897 0.10114 47.0844 0.0801874 46.7386C-0.406959 39.2975 1.37924 30.9813 4.15546 24.0957C5.55404 20.6215 7.13071 17.2783 7.95834 13.5996C8.42453 11.5298 8.71787 9.37082 8.62358 7.24854C8.58692 6.41535 7.16214 -1.50781 4.81022 0.902677C4.57451 1.15421 4.20259 0.782152 4.43831 0.541103Z" fill="#9B8580"/>
</svg>
