<svg width="17" height="25" viewBox="0 0 17 25" fill="none" xmlns="http://www.w3.org/2000/svg">
<path d="M2.90567 4.07621C1.53965 5.18654 0.931342 6.96412 0.536476 8.68299C-0.0558208 11.2666 -0.290609 14.0104 0.531136 16.53C0.76592 17.2453 0.472441 20.5549 1.03272 20.4588C1.20881 20.4321 1.60368 17.8965 2.27068 16.6047C3.3112 14.6029 6.6142 14.3307 7.8148 15.9001C9.30355 17.8432 8.3484 19.2151 7.68673 21.1528C7.19582 22.5941 7.6814 24.4037 9.44228 24.9001C11.0858 25.3645 10.6109 24.1208 11.2672 22.9571C12.6759 20.4482 14.1486 18.2542 15.0931 15.4624C16.5819 11.0584 17.8091 4.37514 13.2042 1.32709C12.0516 0.563742 8.25235 -0.365083 6.97171 0.147375" fill="#433735"/>
</svg>
