<svg width="43" height="31" viewBox="0 0 43 31" fill="none" xmlns="http://www.w3.org/2000/svg">
<path d="M42.5914 22.0456C40.8689 20.9831 32.8215 15.8451 32.0976 13.9898C31.7648 13.1282 29.9365 10.4746 28.3619 7.98493C27.4267 6.51015 25.0648 3.61873 24.4677 3.00028C23.4426 1.9378 21.9684 -0.694599 21.0754 0.172297C19.9658 1.25063 21.699 3.94646 22.6765 5.60096C23.0358 6.20885 23.4215 6.81673 23.5747 7.50391C23.728 8.19108 23.6963 8.70381 23.2894 9.28527C23.0675 9.60243 21.5668 9.75044 21.0596 9.7293C17.2605 9.56015 15.6119 9.78743 12.7745 8.73024C9.93701 7.67305 7.28978 6.18242 4.61614 4.76578C4.15644 4.52263 3.88167 4.02575 2.84603 3.93061C2.32821 3.88303 1.23974 3.95175 1.29786 4.46977C1.34541 4.8715 4.53688 7.36647 4.86448 7.59905C6.63458 8.85711 6.4338 8.71439 8.2039 9.97244C8.47866 10.168 8.77456 10.3953 8.84325 10.723C8.90137 10.9979 8.77984 11.2834 8.77455 11.5635C8.76399 12.071 9.11273 12.5044 9.46147 12.8744C10.0691 13.5246 10.7085 14.1325 11.3848 14.7087C12.3253 15.5174 11.5592 16.2046 12.5842 16.9129C13.715 17.6952 16.6423 18.4881 17.8047 19.2176C18.7294 19.8043 19.6647 20.3963 20.6844 20.8034C21.905 21.2897 23.2101 21.5064 24.4994 21.7707C28.0238 22.5002 34.1953 28.8909 37.1754 31" fill="#FE8E68"/>
<path d="M22.3493 21.3168C22.3493 21.3168 17.9162 20.7565 14.3918 19.1179C10.8675 17.4792 2.15432 12.0982 2.15432 12.0982C2.15432 12.0982 2.0328 11.7916 2.12791 11.5801C2.21774 11.3687 3.544 11.0727 4.61135 11.5326C5.67869 11.9924 12.5055 14.9579 12.5055 14.9579" fill="#FE8E68"/>
<path d="M23.2263 19.8252C23.2263 19.8252 17.6096 18.6517 14.0852 17.0131C10.5609 15.3745 1.84773 9.99336 1.84773 9.99336C1.84773 9.99336 1.72621 9.68677 1.82132 9.47533C1.91643 9.2639 3.23739 8.96788 4.30474 9.42776C5.37208 9.89293 12.1989 12.8531 12.1989 12.8531" fill="#FE8E68"/>
<path d="M21.4506 16.5962C21.4506 16.5962 15.8338 15.4227 12.3095 13.7841C8.78511 12.1454 3.311 9.34385 0.209358 7.22419C0.00328681 7.08675 -0.0495511 6.46301 0.0455599 6.24628C0.140669 6.03485 1.46165 5.73883 2.52899 6.204C3.59634 6.66916 10.4231 9.6293 10.4231 9.6293" fill="#FE8E68"/>
</svg>
