<svg width="53" height="37" viewBox="0 0 53 37" fill="none" xmlns="http://www.w3.org/2000/svg">
<path d="M6.43055 0H43.3266C46.4614 0 49.1385 2.26251 49.6645 5.35636L52.8518 24.1089C53.5197 28.0341 50.4955 31.6225 46.514 31.6225H46.3246L50.0169 37L40.6653 31.6225H9.61786C6.48314 31.6225 3.80073 29.36 3.28003 26.2662L0.0927181 7.51364C-0.575251 3.58319 2.44903 0 6.43055 0Z" fill="#818181"/>
<path d="M44.2733 6.55579C37.5673 6.90306 30.8456 7.0346 24.129 7.2135C20.8155 7.30294 17.5019 7.39239 14.1884 7.48184C10.817 7.57129 7.3509 7.89751 3.98476 7.67652C3.64814 7.65547 3.65866 7.19771 3.98476 7.16088C7.25097 6.76626 10.6382 6.8978 13.9254 6.80835C17.3284 6.71364 20.7261 6.61893 24.129 6.52422C30.8403 6.34006 37.5568 6.10329 44.2733 6.08224C44.5784 6.08224 44.5731 6.54 44.2733 6.55579Z" fill="white"/>
<path d="M45.9719 11.3435C39.5131 11.654 33.0543 11.8539 26.5902 11.9329C23.445 11.9697 20.2998 11.9802 17.1545 11.9644C13.8515 11.9434 10.4906 12.0433 7.19811 11.754C6.82467 11.7224 6.81416 11.1752 7.19811 11.1594C10.417 11.0278 13.6674 11.2225 16.8915 11.2436C20.1209 11.2646 23.3556 11.2541 26.585 11.212C33.049 11.1331 39.5078 10.9331 45.9666 10.6174C46.44 10.5964 46.44 11.3225 45.9719 11.3435Z" fill="white"/>
<path d="M46.998 15.6687C34.4591 16.6421 21.8203 16.7421 9.25506 16.3001C8.79748 16.2843 8.79222 15.5687 9.25506 15.5845C21.8518 16.0475 34.4117 15.8108 46.998 15.2109C47.2925 15.2004 47.2872 15.6477 46.998 15.6687Z" fill="white"/>
<path d="M48.0024 20.3355C39.3819 21.0932 30.6036 21.5773 21.9516 21.2669C21.5624 21.2511 21.5624 20.667 21.9516 20.6618C30.6457 20.5197 39.3135 20.4671 48.0024 19.9988C48.218 19.9883 48.2128 20.3145 48.0024 20.3355Z" fill="white"/>
</svg>
