<svg width="41" height="45" viewBox="0 0 41 45" fill="none" xmlns="http://www.w3.org/2000/svg">
<path d="M17.3662 33.95C17.3662 33.95 3.76283 42.2464 0.584132 25.4578C-0.188065 18.5106 -1.15067 7.21947 4.63552 2.8067C10.4217 -1.60606 23.7342 -2.11401 24.0251 10.9867C23.5173 14.7487 23.6654 15.0397 23.6654 15.0397C23.6654 15.0397 28.6582 13.664 27.574 19.8863C26.9975 22.7065 26.2465 23.7223 26.2465 23.7223C26.2465 23.7223 36.4595 31.7225 36.4701 31.733C37.4116 32.4685 38.1996 33.696 39.5007 33.1034C39.6435 33.0399 39.7811 32.9553 39.9344 32.9288C40.0878 32.9024 40.2676 32.95 40.347 33.0876C40.3946 33.1722 40.3893 33.278 40.3946 33.3786C40.4104 33.8812 40.6061 34.3521 40.7384 34.8336C41.2514 36.6802 40.7172 38.4104 39.744 40.0083C38.9189 41.3628 37.7448 42.5163 36.3591 43.2888C35.0315 44.0295 33.54 44.4316 32.0432 44.7015C30.1603 45.0401 28.1664 45.1724 26.3046 44.6539C25.1622 44.3364 24.3847 43.9819 23.5914 43.056C23.4433 42.8814 23.3005 42.7015 23.2 42.4951C22.9725 42.0295 22.962 41.4951 22.9673 40.9766C22.9673 40.9025 22.9725 40.8284 23.0201 40.7702C23.0677 40.712 23.1524 40.7014 23.2264 40.6908C24.0568 40.5533 23.5067 40.1141 23.163 39.7543C22.8192 39.3945 22.4701 39.04 22.121 38.6802C21.3911 37.9342 20.6507 37.1934 19.9102 36.4527C19.0587 35.6167 18.2124 34.7807 17.3662 33.95Z" fill="#FE8E68"/>
</svg>
