<svg xmlns="http://www.w3.org/2000/svg" width="179" height="121" fill="none" viewBox="0 0 179 121"><path fill="#A8D29F" d="M171.272 105.127C161.44 97.7477 152 107.386 138.233 101.084C124.466 94.7832 152.785 63.6718 141.38 54.22C129.974 44.7682 111.095 64.8526 111.095 64.8526C111.095 64.8526 144.134 23.5017 131.547 18.3437C118.961 13.1858 39.3584 0 39.3584 0L24.9756 83.0727C22.0344 79.2622 15.8009 74.3488 10.4027 80.5486C3.22171 88.796 27.298 106.559 23.4966 110.154C19.6953 113.749 10.6136 98.5228 2.93037 104.478C-4.75286 110.433 5.10159 120.649 5.10159 120.649L26.664 120.949C26.664 120.949 26.6668 120.681 26.6737 120.195C44.5818 120.195 178.754 120.195 178.754 120.195C178.754 120.195 181.105 112.506 171.272 105.127Z"/></svg>