<svg width="229" height="95" viewBox="0 0 229 95" fill="none" xmlns="http://www.w3.org/2000/svg">
<path d="M13.6347 94.134C12.9619 94.134 12.4165 93.5884 12.4165 92.9154C12.4165 92.2424 12.9619 91.6968 13.6347 91.6968C14.3074 91.6968 14.8528 92.2424 14.8528 92.9154C14.8528 93.5884 14.3074 94.134 13.6347 94.134Z" fill="#2D2442"/>
<path d="M9.77713 94.134C9.10439 94.134 8.55902 93.5884 8.55902 92.9154C8.55902 92.2424 9.10439 91.6968 9.77713 91.6968C10.4499 91.6968 10.9952 92.2424 10.9952 92.9154C10.9952 93.5884 10.4499 94.134 9.77713 94.134Z" fill="#2D2442"/>
<path d="M5.92352 94.134C5.25078 94.134 4.70544 93.5884 4.70544 92.9154C4.70544 92.2424 5.25078 91.6968 5.92352 91.6968C6.59626 91.6968 7.14163 92.2424 7.14163 92.9154C7.14163 93.5884 6.59626 94.134 5.92352 94.134Z" fill="#2D2442"/>
<path d="M8.92946 2.43717C8.25672 2.43717 7.71138 1.89159 7.71138 1.21859C7.71138 0.54558 8.25672 0 8.92946 0C9.60221 0 10.1476 0.54558 10.1476 1.21859C10.1476 1.89159 9.60221 2.43717 8.92946 2.43717Z" fill="#2D2442"/>
<path d="M5.07145 2.43717C4.39871 2.43717 3.85337 1.89159 3.85337 1.21859C3.85337 0.54558 4.39871 0 5.07145 0C5.74419 0 6.28956 0.54558 6.28956 1.21859C6.28956 1.89159 5.74419 2.43717 5.07145 2.43717Z" fill="#2D2442"/>
<path d="M1.21832 2.43717C0.545582 2.43717 0.000241561 1.89159 0.000241561 1.21859C0.000241561 0.54558 0.545582 0 1.21832 0C1.89106 0 2.43644 0.54558 2.43644 1.21859C2.43644 1.89159 1.89106 2.43717 1.21832 2.43717Z" fill="#2D2442"/>
<path d="M227.782 49.1565C227.109 49.1565 226.564 48.6109 226.564 47.9379C226.564 47.2649 227.109 46.7193 227.782 46.7193C228.455 46.7193 229 47.2649 229 47.9379C229 48.6109 228.455 49.1565 227.782 49.1565Z" fill="#2D2442"/>
<path d="M223.928 49.1565C223.256 49.1565 222.71 48.6109 222.71 47.9379C222.71 47.2649 223.256 46.7193 223.928 46.7193C224.601 46.7193 225.146 47.2649 225.146 47.9379C225.146 48.6109 224.601 49.1565 223.928 49.1565Z" fill="#2D2442"/>
<path d="M220.071 49.1565C219.398 49.1565 218.853 48.6109 218.853 47.9379C218.853 47.2649 219.398 46.7193 220.071 46.7193C220.743 46.7193 221.289 47.2649 221.289 47.9379C221.289 48.6109 220.743 49.1565 220.071 49.1565Z" fill="#2D2442"/>
</svg>
